<?xml version="1.0" encoding="utf-8"?>
<!-- Generator: Adobe Illustrator 16.0.4, SVG Export Plug-In . SVG Version: 6.00 Build 0)  -->
<!DOCTYPE svg PUBLIC "-//W3C//DTD SVG 1.1//EN" "http://www.w3.org/Graphics/SVG/1.1/DTD/svg11.dtd">
<svg version="1.1" id="Layer_1" xmlns="http://www.w3.org/2000/svg" xmlns:xlink="http://www.w3.org/1999/xlink" x="0px" y="0px"
	 width="32px" height="32px" viewBox="0 0 32 32" enable-background="new 0 0 32 32" xml:space="preserve">
<path fill="#FFFFFF" d="M23.26,7.703H8.741c-1.151,0-2.075,0.934-2.075,2.075v12.445c0,1.142,0.923,2.075,2.075,2.075h14.52
	c1.142,0,2.074-0.934,2.074-2.075V9.778C25.334,8.637,24.401,7.703,23.26,7.703z M14.964,14.963h-1.556v-0.519h-2.075v3.111h2.075
	v-0.519h1.556v1.037c0,0.571-0.467,1.037-1.037,1.037h-3.111c-0.571,0-1.038-0.466-1.038-1.037v-4.147
	c0-0.571,0.467-1.038,1.037-1.038h3.111c0.57,0,1.036,0.467,1.036,1.037v1.038H14.964z M22.223,14.963h-1.556v-0.519h-2.074v3.111
	h2.074v-0.519h1.556v1.037c0,0.571-0.466,1.037-1.037,1.037h-3.111c-0.57,0-1.037-0.466-1.037-1.037v-4.147
	c0-0.571,0.467-1.037,1.037-1.037h3.111c0.571,0,1.037,0.466,1.037,1.036V14.963z"/>
</svg>
