<?xml version="1.0" encoding="utf-8"?>
<!-- Generator: Adobe Illustrator 16.0.4, SVG Export Plug-In . SVG Version: 6.00 Build 0)  -->
<!DOCTYPE svg PUBLIC "-//W3C//DTD SVG 1.1//EN" "http://www.w3.org/Graphics/SVG/1.1/DTD/svg11.dtd">
<svg version="1.1" id="Layer_1" xmlns="http://www.w3.org/2000/svg" xmlns:xlink="http://www.w3.org/1999/xlink" x="0px" y="0px"
	 width="32px" height="32px" viewBox="0 0 32 32" enable-background="new 0 0 32 32" xml:space="preserve">
<path fill="#FFFFFF" d="M22.272,16.827c0.032-0.272,0.059-0.541,0.059-0.828c0-0.286-0.026-0.558-0.059-0.827l1.78-1.392
	c0.159-0.127,0.201-0.355,0.101-0.541l-1.688-2.919c-0.101-0.186-0.329-0.253-0.514-0.186l-2.101,0.844
	c-0.439-0.337-0.912-0.616-1.427-0.827l-0.321-2.236c-0.024-0.202-0.202-0.354-0.413-0.354h-3.375c-0.212,0-0.389,0.152-0.414,0.354
	l-0.321,2.236c-0.514,0.211-0.988,0.498-1.426,0.827l-2.101-0.844c-0.193-0.076-0.414,0-0.515,0.186L7.852,13.24
	c-0.11,0.185-0.06,0.413,0.101,0.54l1.78,1.392c-0.033,0.27-0.06,0.549-0.06,0.828c0,0.278,0.025,0.556,0.06,0.827l-1.78,1.393
	c-0.161,0.127-0.203,0.354-0.101,0.539l1.688,2.921c0.101,0.186,0.329,0.253,0.515,0.186l2.101-0.844
	c0.439,0.338,0.912,0.615,1.426,0.826l0.321,2.237c0.025,0.203,0.202,0.354,0.414,0.354h3.375c0.211,0,0.387-0.15,0.413-0.354
	l0.321-2.237c0.515-0.211,0.987-0.497,1.427-0.826l2.101,0.844c0.193,0.076,0.413,0,0.514-0.186l1.688-2.921
	c0.101-0.185,0.059-0.412-0.101-0.539L22.272,16.827z M16.003,18.952c-1.629,0-2.954-1.325-2.954-2.953
	c0-1.628,1.325-2.954,2.954-2.954c1.626,0,2.952,1.324,2.952,2.954C18.955,17.627,17.63,18.952,16.003,18.952z"/>
</svg>
