<?xml version="1.0" encoding="utf-8"?>
<!-- Generator: Adobe Illustrator 16.0.4, SVG Export Plug-In . SVG Version: 6.00 Build 0)  -->
<!DOCTYPE svg PUBLIC "-//W3C//DTD SVG 1.1//EN" "http://www.w3.org/Graphics/SVG/1.1/DTD/svg11.dtd">
<svg version="1.1" id="Layer_1" xmlns="http://www.w3.org/2000/svg" xmlns:xlink="http://www.w3.org/1999/xlink" x="0px" y="0px"
	 width="24px" height="24px" viewBox="0 0 24 24" enable-background="new 0 0 24 24" xml:space="preserve">
<path fill="#FFFFFF" d="M13.677,9.206v0.591l-0.199,0.207c-0.849-0.729-1.95-1.169-3.149-1.169c-2.67,0-4.836,2.165-4.836,4.837
	c0,2.67,2.165,4.836,4.836,4.836c2.671,0,4.836-2.166,4.836-4.838c0-1.198-0.438-2.298-1.168-3.147l0.207-0.2h0.59l3.713-3.721
	l-1.109-1.108L13.677,9.206z M13.677,13.668c0,1.855-1.496,3.352-3.349,3.352s-3.349-1.496-3.349-3.35
	c0-1.853,1.495-3.349,3.349-3.349C12.181,10.323,13.677,11.818,13.677,13.668z M9.958,15.529v-3.721h0.743v3.721H9.958z"/>
</svg>
