<?xml version="1.0" encoding="utf-8"?>
<!-- Generator: Adobe Illustrator 16.0.4, SVG Export Plug-In . SVG Version: 6.00 Build 0)  -->
<!DOCTYPE svg PUBLIC "-//W3C//DTD SVG 1.1//EN" "http://www.w3.org/Graphics/SVG/1.1/DTD/svg11.dtd">
<svg version="1.1" id="Layer_1" xmlns="http://www.w3.org/2000/svg" xmlns:xlink="http://www.w3.org/1999/xlink" x="0px" y="0px"
	 width="24px" height="24px" viewBox="0 0 24 24" enable-background="new 0 0 24 24" xml:space="preserve">
<path fill="#FFFFFF" d="M13.85,9.384V9.97l-0.199,0.209c-0.849-0.729-1.949-1.167-3.145-1.167c-2.666,0-4.829,2.161-4.829,4.83
	c0,2.665,2.162,4.829,4.829,4.829s4.829-2.163,4.829-4.829c0-1.197-0.438-2.297-1.169-3.144l0.21-0.202h0.587l3.706-3.715
	l-1.106-1.106L13.85,9.384z M13.85,13.842c0,1.85-1.492,3.344-3.344,3.344c-1.851,0-3.343-1.492-3.343-3.344
	c0-1.851,1.491-3.346,3.343-3.346C12.356,10.496,13.85,11.991,13.85,13.842z"/>
<path fill="#FFFFFF" d="M10.878,11.982v1.487h1.487v0.742h-1.487v1.487L10.136,15.7v-1.488H8.649V13.47h1.486v-1.487H10.878z"/>
</svg>
