<?xml version="1.0" encoding="utf-8"?>
<!-- Generator: Adobe Illustrator 16.0.4, SVG Export Plug-In . SVG Version: 6.00 Build 0)  -->
<!DOCTYPE svg PUBLIC "-//W3C//DTD SVG 1.1//EN" "http://www.w3.org/Graphics/SVG/1.1/DTD/svg11.dtd">
<svg version="1.1" id="Layer_1" xmlns="http://www.w3.org/2000/svg" xmlns:xlink="http://www.w3.org/1999/xlink" x="0px" y="0px"
	 width="300px" height="60px" viewBox="0 0 300 60" enable-background="new 0 0 300 60" xml:space="preserve">
<g id="logo">
	<path fill="#010202" d="M9.305,50.155L27.29,27.854h-17.2v-4.317h23.87v3.924L15.977,49.83h18.441v4.313H9.305V50.155z"/>
	<path fill="#010202" d="M41.983,30.64c1.214-2.067,2.677-3.739,4.384-5.01c1.71-1.268,3.542-2.154,5.5-2.646
		c1.956-0.492,4.001-0.568,6.127-0.229c2.127,0.339,4.205,1.105,6.238,2.298c2.028,1.192,3.709,2.632,5.042,4.327
		c1.33,1.69,2.259,3.515,2.78,5.463c0.524,1.949,0.646,3.982,0.368,6.098c-0.282,2.11-1.029,4.198-2.244,6.264
		c-1.214,2.07-2.674,3.738-4.384,5.01c-1.71,1.273-3.538,2.155-5.5,2.646c-1.956,0.493-4.001,0.577-6.126,0.231
		c-2.128-0.34-4.205-1.1-6.236-2.295c-2.03-1.195-3.71-2.64-5.043-4.328c-1.333-1.693-2.259-3.515-2.783-5.464
		c-0.521-1.949-0.643-3.982-0.363-6.09C40.022,34.797,40.769,32.708,41.983,30.64z M46.721,33.424
		c-0.818,1.392-1.356,2.803-1.622,4.242c-0.261,1.438-0.241,2.843,0.067,4.212c0.309,1.367,0.887,2.646,1.734,3.828
		c0.85,1.184,1.989,2.187,3.417,3.03c1.429,0.838,2.864,1.342,4.311,1.508c1.441,0.161,2.842,0.046,4.184-0.345
		c1.345-0.403,2.584-1.067,3.713-1.994c1.128-0.933,2.099-2.096,2.917-3.484c0.815-1.394,1.358-2.805,1.62-4.244
		c0.262-1.438,0.24-2.842-0.067-4.211c-0.309-1.367-0.888-2.644-1.734-3.826c-0.848-1.183-1.988-2.19-3.417-3.03
		c-1.429-0.841-2.864-1.342-4.308-1.509c-1.448-0.166-2.845-0.047-4.19,0.349c-1.346,0.396-2.58,1.062-3.71,1.991
		C48.509,30.875,47.536,32.033,46.721,33.424z"/>
	<path fill="#010202" d="M78.303,38.843c0-2.398,0.415-4.584,1.243-6.544c0.825-1.961,1.962-3.648,3.4-5.065
		c1.438-1.418,3.161-2.521,5.168-3.304c2.006-0.787,4.186-1.176,6.542-1.176c2.353,0,4.535,0.389,6.538,1.176
		c2.008,0.783,3.729,1.886,5.168,3.304c1.441,1.417,2.573,3.104,3.4,5.065c0.828,1.96,1.243,4.146,1.243,6.544
		c0,2.396-0.415,4.576-1.243,6.537c-0.827,1.963-1.958,3.656-3.4,5.069c-1.439,1.42-3.161,2.518-5.168,3.304
		c-2.003,0.787-4.186,1.177-6.538,1.177c-2.356,0-4.535-0.39-6.542-1.177c-2.007-0.787-3.73-1.884-5.168-3.304
		c-1.438-1.413-2.575-3.106-3.4-5.069C78.718,43.419,78.303,41.238,78.303,38.843z M83.797,38.843c0,1.609,0.252,3.106,0.753,4.479
		c0.499,1.375,1.231,2.57,2.189,3.599c0.962,1.023,2.103,1.83,3.435,2.417c1.33,0.594,2.822,0.882,4.481,0.882
		c1.658,0,3.147-0.288,4.48-0.882c1.327-0.587,2.474-1.394,3.432-2.417c0.956-1.029,1.688-2.224,2.189-3.599
		c0.502-1.373,0.754-2.87,0.754-4.479c0-1.617-0.252-3.106-0.754-4.48c-0.501-1.373-1.233-2.574-2.189-3.601
		c-0.958-1.023-2.105-1.828-3.432-2.419c-1.333-0.588-2.822-0.882-4.48-0.882c-1.659,0-3.151,0.294-4.481,0.882
		c-1.333,0.591-2.473,1.396-3.435,2.419c-0.958,1.027-1.69,2.228-2.189,3.601C84.049,35.737,83.797,37.226,83.797,38.843z"/>
	<path fill="#010202" d="M118.918,30.793c0-1.393-0.045-2.7-0.131-3.924c-0.09-1.218-0.131-2.33-0.131-3.333h4.841
		c0,0.83,0.02,1.659,0.067,2.487c0.042,0.828,0.064,1.677,0.064,2.549h0.128c0.352-0.742,0.84-1.46,1.473-2.16
		c0.633-0.693,1.384-1.313,2.257-1.863c0.869-0.543,1.854-0.981,2.942-1.307c1.09-0.325,2.27-0.489,3.531-0.489
		c1.656,0,3.043,0.204,4.155,0.62c1.109,0.415,2.036,0.915,2.778,1.502c0.741,0.591,1.32,1.221,1.735,1.902
		c0.412,0.674,0.75,1.272,1.012,1.795c1.134-1.831,2.442-3.26,3.925-4.285c1.483-1.023,3.4-1.534,5.756-1.534
		c2.18,0,4.01,0.29,5.492,0.882c1.483,0.587,2.682,1.438,3.599,2.549s1.569,2.465,1.962,4.056c0.39,1.592,0.588,3.369,0.588,5.33
		v18.573h-5.104V35.832c0-1.048-0.109-2.069-0.323-3.074c-0.221-1.002-0.614-1.898-1.179-2.681c-0.569-0.787-1.33-1.418-2.288-1.898
		c-0.959-0.479-2.183-0.719-3.663-0.719c-1.09,0-2.115,0.22-3.074,0.652c-0.961,0.438-1.799,1.048-2.521,1.835
		c-0.716,0.783-1.285,1.732-1.697,2.843c-0.418,1.113-0.622,2.345-0.622,3.693v17.66h-5.102V36.815c0-3.404-0.457-5.811-1.373-7.23
		c-0.918-1.416-2.419-2.125-4.513-2.125c-1.659,0-3.084,0.281-4.286,0.85c-1.198,0.569-2.18,1.374-2.943,2.419
		c-0.76,1.049-1.33,2.292-1.7,3.727c-0.367,1.438-0.552,3.036-0.552,4.775v14.911h-5.104V30.793z"/>
	<path fill="#010202" d="M174.25,27.46c1.569-1.611,3.433-2.8,5.59-3.563c2.16-0.764,4.349-1.144,6.573-1.144
		c4.535,0,7.805,1.067,9.811,3.201c2.007,2.139,3.011,5.389,3.011,9.75v13.141c0,0.876,0.041,1.777,0.131,2.717
		c0.083,0.939,0.195,1.796,0.325,2.581h-4.908c-0.173-0.697-0.268-1.47-0.294-2.32c-0.019-0.849-0.032-1.604-0.032-2.256h-0.131
		c-1,1.574-2.343,2.858-4.02,3.861c-1.678,0.999-3.698,1.502-6.05,1.502c-1.568,0-3.039-0.199-4.416-0.588
		c-1.372-0.396-2.572-0.972-3.596-1.738c-1.025-0.756-1.843-1.707-2.454-2.839c-0.61-1.138-0.914-2.442-0.914-3.923
		c0-2.532,0.655-4.513,1.962-5.959c1.308-1.437,2.931-2.504,4.874-3.202c1.937-0.697,4.029-1.129,6.276-1.309
		c2.246-0.174,4.304-0.256,6.181-0.256h1.962v-0.918c0-2.224-0.665-3.902-1.994-5.037c-1.33-1.134-3.196-1.7-5.589-1.7
		c-1.659,0-3.286,0.272-4.875,0.818c-1.594,0.547-2.997,1.383-4.218,2.515L174.25,27.46z M189.03,39.431
		c-3.269,0-5.864,0.452-7.782,1.373c-1.92,0.915-2.879,2.417-2.879,4.513c0,1.917,0.643,3.278,1.926,4.084
		c1.289,0.812,2.89,1.214,4.811,1.214c1.482,0,2.779-0.248,3.893-0.754c1.112-0.498,2.036-1.163,2.777-1.993
		c0.741-0.831,1.307-1.797,1.703-2.908c0.391-1.113,0.607-2.302,0.652-3.568v-1.961H189.03z"/>
	<path fill="#010202" d="M208.323,4.7h5.101v23.284h0.131c1.394-1.658,3.021-2.943,4.875-3.86c1.85-0.918,3.891-1.371,6.116-1.371
		c2.394,0,4.589,0.403,6.57,1.208c1.985,0.809,3.672,1.93,5.072,3.369c1.394,1.438,2.484,3.138,3.266,5.1
		c0.786,1.964,1.179,4.1,1.179,6.413c0,2.306-0.394,4.448-1.179,6.411c-0.782,1.96-1.86,3.662-3.234,5.099
		c-1.375,1.438-2.997,2.564-4.874,3.368c-1.875,0.806-3.879,1.208-6.018,1.208c-2.744,0-5.155-0.602-7.228-1.797
		c-2.071-1.201-3.586-2.671-4.545-4.416h-0.131v5.426h-5.101V4.7z M213.424,38.843c0,1.609,0.252,3.106,0.751,4.479
		c0.501,1.375,1.233,2.57,2.191,3.599c0.959,1.023,2.104,1.83,3.433,2.417c1.333,0.594,2.825,0.882,4.484,0.882
		c1.656,0,3.151-0.288,4.477-0.882c1.33-0.587,2.477-1.394,3.436-2.417c0.959-1.029,1.688-2.224,2.193-3.599
		c0.498-1.373,0.75-2.87,0.75-4.479c0-1.617-0.252-3.106-0.75-4.48c-0.506-1.373-1.234-2.574-2.193-3.601
		c-0.958-1.023-2.106-1.828-3.436-2.419c-1.326-0.588-2.821-0.882-4.477-0.882c-1.659,0-3.151,0.294-4.484,0.882
		c-1.329,0.591-2.473,1.396-3.433,2.419c-0.958,1.027-1.69,2.228-2.191,3.601C213.676,35.737,213.424,37.226,213.424,38.843z"/>
	<path fill="#010202" d="M249.002,4.7h5.104v49.443h-5.104V4.7z"/>
	<path fill="#010202" d="M291.58,48.589c-1.831,2.352-3.834,3.994-6.015,4.936c-2.182,0.939-4.709,1.405-7.59,1.405
		c-2.393,0-4.553-0.422-6.471-1.277c-1.92-0.844-3.544-1.995-4.877-3.433c-1.325-1.438-2.352-3.138-3.07-5.101
		c-0.723-1.963-1.081-4.051-1.081-6.275c0-2.359,0.393-4.527,1.18-6.508c0.783-1.985,1.873-3.685,3.265-5.102
		c1.401-1.418,3.052-2.521,4.973-3.304c1.92-0.787,4.014-1.176,6.28-1.176c2.139,0,4.1,0.358,5.887,1.077
		c1.786,0.719,3.322,1.767,4.61,3.139c1.283,1.374,2.276,3.052,2.976,5.035c0.697,1.989,1.048,4.242,1.048,6.769v1.635h-24.726
		c0.09,1.311,0.403,2.562,0.949,3.765c0.546,1.201,1.256,2.244,2.129,3.139c0.87,0.894,1.892,1.604,3.071,2.126
		c1.179,0.525,2.463,0.781,3.856,0.781c2.224,0,4.098-0.389,5.628-1.176c1.524-0.786,2.897-1.943,4.119-3.465L291.58,48.589z
		 M287.198,36.093c-0.086-2.615-0.937-4.708-2.547-6.278c-1.617-1.573-3.841-2.355-6.676-2.355c-2.831,0-5.122,0.782-6.864,2.355
		c-1.748,1.569-2.789,3.663-3.142,6.278H287.198z"/>
	
		<rect x="68.62" y="4.65" transform="matrix(0.8621 0.5068 -0.5068 0.8621 17.1106 -34.0841)" fill="#010202" width="5.101" height="19.482"/>
	
		<rect x="64.248" y="20.339" transform="matrix(0.8504 0.5261 -0.5261 0.8504 22.2301 -31.1149)" fill="#010202" width="3.172" height="6.394"/>
	<polygon fill="#010202" points="51.804,45.112 51.804,32.733 62.804,38.925 	"/>
</g>
</svg>
