<?xml version="1.0" encoding="utf-8"?>
<!-- Generator: Adobe Illustrator 16.0.4, SVG Export Plug-In . SVG Version: 6.00 Build 0)  -->
<!DOCTYPE svg PUBLIC "-//W3C//DTD SVG 1.1//EN" "http://www.w3.org/Graphics/SVG/1.1/DTD/svg11.dtd">
<svg version="1.1" id="Layer_1" xmlns="http://www.w3.org/2000/svg" xmlns:xlink="http://www.w3.org/1999/xlink" x="0px" y="0px"
	 width="120px" height="24px" viewBox="15 3 120 24" enable-background="new 15 3 120 24" xml:space="preserve">
<g id="logo">
	<path fill="#FFFFFF" d="M15.277,22.158l7.58-9.398h-7.249v-1.819H25.67v1.653l-7.58,9.427h7.772v1.818H15.277V22.158z"/>
	<path fill="#FFFFFF" d="M29.051,13.934c0.512-0.872,1.128-1.577,1.848-2.112c0.721-0.534,1.494-0.908,2.318-1.115
		c0.825-0.208,1.686-0.239,2.582-0.098c0.897,0.144,1.772,0.466,2.63,0.969c0.855,0.502,1.563,1.109,2.125,1.824
		c0.561,0.713,0.953,1.479,1.172,2.302c0.221,0.82,0.272,1.678,0.155,2.57c-0.119,0.889-0.434,1.77-0.945,2.639
		c-0.512,0.873-1.127,1.576-1.848,2.111c-0.721,0.537-1.492,0.91-2.318,1.115c-0.824,0.209-1.686,0.244-2.583,0.1
		c-0.897-0.145-1.772-0.465-2.629-0.969c-0.855-0.502-1.564-1.113-2.126-1.824c-0.562-0.713-0.952-1.482-1.173-2.303
		c-0.219-0.822-0.271-1.68-0.153-2.566C28.224,15.686,28.539,14.807,29.051,13.934z M31.048,15.107
		c-0.344,0.586-0.571,1.182-0.683,1.787c-0.111,0.605-0.103,1.199,0.027,1.777c0.131,0.574,0.375,1.113,0.732,1.611
		c0.358,0.498,0.839,0.922,1.44,1.279c0.602,0.352,1.208,0.566,1.817,0.635c0.607,0.066,1.198,0.018,1.763-0.146
		c0.567-0.17,1.09-0.451,1.565-0.84c0.476-0.395,0.885-0.885,1.229-1.469c0.343-0.588,0.573-1.184,0.684-1.789
		c0.11-0.607,0.101-1.199-0.03-1.775c-0.129-0.576-0.374-1.115-0.73-1.611c-0.357-0.5-0.838-0.924-1.44-1.278
		c-0.603-0.354-1.208-0.566-1.816-0.636c-0.611-0.071-1.2-0.02-1.766,0.146c-0.567,0.168-1.088,0.448-1.564,0.84
		C31.801,14.033,31.391,14.52,31.048,15.107z"/>
	<path fill="#FFFFFF" d="M44.36,17.391c0-1.012,0.174-1.932,0.524-2.758c0.348-0.826,0.828-1.538,1.433-2.135
		c0.606-0.599,1.332-1.062,2.179-1.393c0.845-0.332,1.765-0.497,2.756-0.497c0.992,0,1.912,0.165,2.756,0.497
		c0.846,0.33,1.572,0.794,2.179,1.393c0.607,0.597,1.084,1.308,1.433,2.135c0.349,0.826,0.524,1.746,0.524,2.758
		c0,1.01-0.175,1.93-0.524,2.754c-0.348,0.83-0.826,1.543-1.433,2.139c-0.607,0.6-1.333,1.061-2.179,1.393
		c-0.844,0.332-1.764,0.496-2.756,0.496c-0.992,0-1.911-0.164-2.756-0.496c-0.847-0.332-1.572-0.793-2.179-1.393
		c-0.605-0.596-1.085-1.309-1.433-2.139C44.535,19.32,44.36,18.398,44.36,17.391z M46.676,17.391c0,0.68,0.106,1.311,0.318,1.889
		c0.209,0.58,0.518,1.082,0.923,1.518c0.406,0.43,0.887,0.77,1.447,1.02c0.561,0.248,1.19,0.371,1.889,0.371
		c0.699,0,1.328-0.123,1.889-0.371c0.56-0.25,1.044-0.59,1.447-1.02c0.403-0.434,0.711-0.938,0.922-1.518
		c0.212-0.578,0.319-1.209,0.319-1.889s-0.106-1.309-0.319-1.887c-0.21-0.58-0.519-1.083-0.922-1.519
		c-0.403-0.43-0.888-0.771-1.447-1.019c-0.562-0.249-1.189-0.373-1.889-0.373c-0.699,0-1.328,0.124-1.889,0.373
		c-0.561,0.248-1.041,0.588-1.447,1.019c-0.404,0.431-0.713,0.938-0.923,1.519C46.782,16.082,46.676,16.711,46.676,17.391z"/>
	<path fill="#FFFFFF" d="M61.479,13.999c0-0.586-0.019-1.137-0.055-1.653c-0.038-0.513-0.055-0.982-0.055-1.404h2.041
		c0,0.35,0.008,0.7,0.028,1.048c0.017,0.348,0.027,0.708,0.027,1.075h0.054c0.148-0.312,0.354-0.616,0.62-0.911
		c0.268-0.292,0.583-0.553,0.951-0.785c0.367-0.229,0.782-0.414,1.241-0.55c0.459-0.138,0.956-0.206,1.488-0.206
		c0.698,0,1.283,0.085,1.75,0.261c0.468,0.175,0.858,0.386,1.171,0.634c0.312,0.249,0.556,0.515,0.73,0.802
		c0.174,0.285,0.318,0.536,0.429,0.756c0.478-0.772,1.029-1.374,1.653-1.806c0.627-0.431,1.433-0.646,2.426-0.646
		c0.919,0,1.689,0.122,2.316,0.372c0.624,0.249,1.128,0.605,1.516,1.074c0.387,0.469,0.661,1.039,0.826,1.709
		c0.167,0.669,0.249,1.419,0.249,2.245v7.83h-2.151v-7.719c0-0.441-0.046-0.871-0.137-1.295c-0.092-0.421-0.259-0.8-0.497-1.13
		c-0.239-0.331-0.559-0.598-0.961-0.8c-0.406-0.201-0.921-0.303-1.548-0.303c-0.457,0-0.89,0.093-1.294,0.274
		c-0.406,0.185-0.757,0.442-1.062,0.773c-0.302,0.329-0.541,0.729-0.715,1.199c-0.178,0.469-0.262,0.988-0.262,1.557v7.443h-2.15
		v-7.305c0-1.436-0.193-2.448-0.58-3.046c-0.387-0.597-1.02-0.896-1.901-0.896c-0.7,0-1.301,0.119-1.806,0.359
		c-0.506,0.24-0.919,0.58-1.24,1.02c-0.321,0.441-0.561,0.966-0.717,1.571c-0.155,0.605-0.233,1.277-0.233,2.012v6.285h-2.151
		v-9.843H61.479z"/>
	<path fill="#FFFFFF" d="M84.8,12.594c0.662-0.679,1.447-1.18,2.354-1.502c0.911-0.322,1.837-0.482,2.771-0.482
		c1.912,0,3.291,0.45,4.137,1.35c0.846,0.902,1.27,2.271,1.27,4.108v5.539c0,0.369,0.016,0.75,0.055,1.146
		c0.035,0.395,0.08,0.756,0.137,1.088h-2.067c-0.074-0.295-0.114-0.621-0.127-0.979c-0.007-0.357-0.01-0.676-0.01-0.951h-0.057
		c-0.422,0.662-0.987,1.205-1.695,1.627c-0.706,0.422-1.56,0.633-2.55,0.633c-0.659,0-1.28-0.082-1.862-0.246
		c-0.579-0.168-1.083-0.41-1.514-0.734c-0.431-0.318-0.778-0.719-1.034-1.195c-0.257-0.48-0.385-1.029-0.385-1.654
		c0-1.066,0.275-1.902,0.825-2.51c0.554-0.607,1.236-1.057,2.055-1.352c0.817-0.293,1.699-0.477,2.646-0.551
		c0.945-0.074,1.814-0.109,2.606-0.109h0.826v-0.387c0-0.937-0.281-1.644-0.844-2.123c-0.557-0.479-1.344-0.717-2.354-0.717
		c-0.699,0-1.384,0.114-2.054,0.344c-0.671,0.23-1.264,0.583-1.779,1.061L84.8,12.594z M91.03,17.641
		c-1.377,0-2.473,0.189-3.277,0.578c-0.812,0.385-1.216,1.018-1.216,1.902c0,0.807,0.271,1.381,0.813,1.723
		c0.541,0.34,1.217,0.512,2.023,0.512c0.627,0,1.175-0.105,1.641-0.32c0.471-0.209,0.86-0.49,1.173-0.84
		c0.312-0.352,0.55-0.758,0.717-1.227c0.163-0.467,0.257-0.969,0.274-1.502v-0.826H91.03z"/>
	<path fill="#FFFFFF" d="M99.161,3h2.149v9.814h0.055c0.589-0.698,1.277-1.24,2.056-1.627c0.779-0.388,1.64-0.579,2.578-0.579
		c1.01,0,1.934,0.17,2.77,0.51c0.835,0.341,1.548,0.813,2.137,1.42c0.588,0.605,1.048,1.322,1.378,2.149
		c0.331,0.83,0.496,1.729,0.496,2.703c0,0.973-0.165,1.875-0.496,2.701c-0.33,0.826-0.785,1.545-1.362,2.148
		c-0.58,0.607-1.263,1.084-2.058,1.422c-0.788,0.338-1.633,0.508-2.534,0.508c-1.157,0-2.173-0.254-3.048-0.756
		c-0.871-0.506-1.509-1.127-1.916-1.861h-0.055v2.287h-2.149V3z M101.311,17.391c0,0.68,0.107,1.311,0.316,1.889
		c0.213,0.58,0.521,1.082,0.924,1.518c0.404,0.43,0.888,0.77,1.447,1.02c0.562,0.248,1.189,0.371,1.892,0.371
		c0.696,0,1.328-0.123,1.887-0.371c0.559-0.25,1.044-0.59,1.445-1.02c0.404-0.434,0.714-0.938,0.926-1.518
		c0.211-0.578,0.318-1.209,0.318-1.889s-0.107-1.309-0.318-1.887c-0.212-0.58-0.52-1.083-0.926-1.519
		c-0.401-0.43-0.887-0.771-1.445-1.019c-0.559-0.249-1.19-0.373-1.887-0.373c-0.702,0-1.329,0.124-1.892,0.373
		c-0.56,0.248-1.043,0.588-1.447,1.019c-0.402,0.431-0.711,0.938-0.924,1.519C101.418,16.082,101.311,16.711,101.311,17.391z"/>
	<path fill="#FFFFFF" d="M116.31,3h2.149V23.84h-2.149V3z"/>
	<path fill="#FFFFFF" d="M134.254,21.5c-0.771,0.99-1.616,1.682-2.533,2.08c-0.92,0.393-1.986,0.592-3.202,0.592
		c-1.007,0-1.916-0.178-2.726-0.539c-0.811-0.355-1.493-0.84-2.058-1.445c-0.558-0.607-0.988-1.322-1.294-2.15
		c-0.304-0.828-0.453-1.707-0.453-2.646c0-0.994,0.165-1.906,0.497-2.742c0.328-0.835,0.788-1.553,1.373-2.15
		c0.591-0.598,1.29-1.062,2.098-1.392c0.81-0.331,1.689-0.496,2.646-0.496c0.904,0,1.729,0.151,2.481,0.454
		c0.754,0.303,1.4,0.745,1.944,1.323c0.538,0.58,0.957,1.286,1.253,2.121c0.293,0.84,0.442,1.789,0.442,2.854v0.689h-10.421
		c0.036,0.553,0.17,1.08,0.401,1.586c0.229,0.506,0.529,0.947,0.895,1.324c0.369,0.377,0.799,0.676,1.295,0.896
		c0.497,0.223,1.039,0.33,1.626,0.33c0.937,0,1.729-0.166,2.373-0.498c0.64-0.33,1.221-0.82,1.735-1.459L134.254,21.5z
		 M132.407,16.232c-0.035-1.102-0.394-1.984-1.073-2.645c-0.682-0.663-1.619-0.993-2.815-0.993c-1.192,0-2.157,0.33-2.891,0.993
		c-0.738,0.661-1.179,1.545-1.325,2.645H132.407z"/>
	
		<rect x="40.278" y="2.978" transform="matrix(-0.8622 -0.5065 0.5065 -0.8622 73.4205 34.1383)" fill="#FFFFFF" width="2.15" height="8.211"/>
	
		<rect x="38.437" y="9.592" transform="matrix(-0.8504 -0.5262 0.5262 -0.8504 66.6045 40.8177)" fill="#FFFFFF" width="1.337" height="2.694"/>
	<polygon fill="#FFFFFF" points="33.19,20.035 33.19,14.816 37.827,17.424 	"/>
</g>
</svg>
