<?xml version="1.0" encoding="utf-8"?>
<!-- Generator: Adobe Illustrator 16.0.4, SVG Export Plug-In . SVG Version: 6.00 Build 0)  -->
<!DOCTYPE svg PUBLIC "-//W3C//DTD SVG 1.1//EN" "http://www.w3.org/Graphics/SVG/1.1/DTD/svg11.dtd">
<svg version="1.1" id="Layer_1" xmlns="http://www.w3.org/2000/svg" xmlns:xlink="http://www.w3.org/1999/xlink" x="0px" y="0px"
	 width="32px" height="32px" viewBox="0 0 32 32" enable-background="new 0 0 32 32" xml:space="preserve">
<path fill="#FFFFFF" d="M16,21.952c-3.287,0-5.952-2.665-5.952-5.952s2.665-5.952,5.952-5.952c1.424,0,2.73,0.501,3.755,1.335
	l1.431-1.76l-3.729,4.782l7.596-0.024L23.224,7.01l-1.905,2.443C19.867,8.272,18.017,7.562,16,7.562
	c-4.66,0-8.438,3.778-8.438,8.438c0,4.66,3.778,8.438,8.438,8.438c2.635,0,4.986-1.209,6.533-3.101l-1.925-1.572
	C19.518,21.1,17.858,21.952,16,21.952z"/>
</svg>
