<?xml version="1.0" encoding="utf-8"?>
<!-- Generator: Adobe Illustrator 16.0.4, SVG Export Plug-In . SVG Version: 6.00 Build 0)  -->
<!DOCTYPE svg PUBLIC "-//W3C//DTD SVG 1.1//EN" "http://www.w3.org/Graphics/SVG/1.1/DTD/svg11.dtd">
<svg version="1.1" id="Layer_1" xmlns="http://www.w3.org/2000/svg" xmlns:xlink="http://www.w3.org/1999/xlink" x="0px" y="0px"
	 width="32px" height="32px" viewBox="0 0 32 32" enable-background="new 0 0 32 32" xml:space="preserve">
<g>
	<circle fill="#FFFFFF" cx="16" cy="16.932" r="2.982"/>
	<path fill="#FFFFFF" d="M13.205,7.612l-1.707,1.864H8.545c-1.026,0-1.865,0.838-1.865,1.864v11.184
		c0,1.025,0.839,1.864,1.865,1.864h14.912c1.024,0,1.863-0.839,1.863-1.864V11.34c0-1.025-0.839-1.864-1.863-1.864h-2.955
		l-1.705-1.865L13.205,7.612L13.205,7.612z M16,21.592c-2.572,0-4.659-2.088-4.659-4.66s2.087-4.66,4.659-4.66
		c2.573,0,4.659,2.088,4.659,4.66C20.66,19.504,18.573,21.592,16,21.592z"/>
</g>
</svg>
